<svg id="Layer_1" data-name="Layer 1" xmlns="http://www.w3.org/2000/svg" viewBox="0 0 200 172.89"><defs><style>.cls-1{fill:#fff;}.cls-2{fill:#ffce31;}.cls-3{fill:#ffa934;}.cls-4{isolation:isolate;}</style></defs><path class="cls-1" d="M125.86,66.64A15.64,15.64,0,0,0,110.24,51h-6.13L104,44.1l-9.79.12.08,6.8H88.68V44.15H78.9V51H71.63v9.79h7.28L79,93.93H71.63v9.78H79v7.21h9.78v-7.19H94.3l.08,7.26,9.79-.11-.08-7.15h6.15a15.6,15.6,0,0,0,11.34-26.34A15.58,15.58,0,0,0,125.86,66.64Zm-15.62-5.83a5.83,5.83,0,0,1,0,11.66H88.72V60.81Zm0,33.12H88.77V82.26h21.5a5.84,5.84,0,0,1,0,11.67Z"/><path class="cls-2" d="M71.81,125.69A8.77,8.77,0,0,1,60,129.53a9.69,9.69,0,0,1-1-.62A66.71,66.71,0,0,1,59,20.38a8.76,8.76,0,0,1,12.19,2.19,8.27,8.27,0,0,1,.62,1h0a8.72,8.72,0,0,1-2.64,11,49.15,49.15,0,0,0,0,80,8.7,8.7,0,0,1,2.64,11Z"/><path class="cls-3" d="M123.63,125.69h0a8.72,8.72,0,0,1,2.64-11,49.16,49.16,0,0,0,0-80,8.71,8.71,0,0,1-2.65-11h0a8.76,8.76,0,0,1,11.77-3.86,8.9,8.9,0,0,1,1.07.64,66.69,66.69,0,0,1,0,108.53,8.76,8.76,0,0,1-12.19-2.22A9.14,9.14,0,0,1,123.63,125.69Z"/><polygon class="cls-3" points="104.57 14.84 97.9 1.75 91.11 15.07 83.7 7.66 83.7 29.03 90.38 29.03 105.07 29.03 111.75 29.03 111.75 7.66 104.57 14.84"/><g class="cls-4"><path class="cls-1" d="M36.28,145.07l-7.63,20.31H25.22l-7.58-20.31v20.31H9.88v-30.1H20.67l6.27,17.06,6.31-17.06H44v30.1H36.28Z"/></g><g class="cls-4"><path class="cls-1" d="M49.26,143.58h7v2.76A9.5,9.5,0,0,1,63,143v6.73a5.41,5.41,0,0,0-1.71-.23c-1.81,0-4.2.77-5.1,2v13.81h-7Z"/></g><g class="cls-4"><path class="cls-1" d="M65.73,157.44a4.24,4.24,0,1,1-4.24,4.24A4.29,4.29,0,0,1,65.73,157.44Z"/><path class="cls-1" d="M74.39,135.28h7v10.88A8,8,0,0,1,87.79,143c5.41,0,9.61,4.29,9.61,11.42,0,7.4-4.24,11.46-9.61,11.46a8.3,8.3,0,0,1-6.45-3.07v2.53h-7Zm11.1,24.5c2.75,0,4.82-2,4.82-5.32s-2.07-5.28-4.82-5.28a5.54,5.54,0,0,0-4.15,2v6.68A5.5,5.5,0,0,0,85.49,159.78Z"/><path class="cls-1" d="M100.55,136.86a4,4,0,1,1,4,4A3.95,3.95,0,0,1,100.55,136.86Zm.5,6.72h7v21.8h-7Z"/><path class="cls-1" d="M114.49,159.51v-9.88h-3.61v-6h3.61v-6h6.91v6h4.42v6H121.4v7.94a2,2,0,0,0,1.94,2.21,2.73,2.73,0,0,0,1.76-.54l1.35,5.23c-.86.82-2.57,1.45-5.14,1.45C116.89,165.92,114.49,163.71,114.49,159.51Z"/><path class="cls-1" d="M144,134.79c9.21,0,16.07,6.4,16.07,15.56s-6.86,15.57-16.07,15.57-16.1-6.41-16.1-15.57S134.84,134.79,144,134.79Zm0,6.85c-5,0-8.21,3.79-8.21,8.71s3.21,8.71,8.21,8.71,8.17-3.83,8.17-8.71S149,141.64,144,141.64Z"/><path class="cls-1" d="M171.79,147.19v18.19H164v-30.1h8l12.19,17.33V135.28H192v30.1h-7.49Z"/></g></svg>